<?xml version="1.0" encoding="UTF-8"?>
<svg xmlns="http://www.w3.org/2000/svg" version="1.1" height="80" width="80">
 <defs>
  <linearGradient id="hicg_overlay_grad" gradientUnits="userSpaceOnUse" x1="39.9995" y1="5.1816" x2="39.9995" y2="58.8019">
   <stop offset="0" style="stop-color:#FFFFFF"/>
   <stop offset="1" style="stop-color:#000000"/>
  </linearGradient>
  <filter id="hicg_drop_shadow">
    <feOffset in="SourceAlpha" dx="0" dy="4"/>
    <feGaussianBlur stdDeviation="4"/>
	<feColorMatrix type="matrix" values="1 0 0 0 0  0 1 0 0 0  0 0 1 0 0  0 0 0 0.5 0" result="shadow"/>
    <feBlend in="SourceGraphic" in2="shadow" mode="normal"/>
  </filter>
 </defs>
 <g>
  <path id="hicg_background" fill="#08a7cc" d="M79,40c0,28.893-10.105,39-39,39S1,68.893,1,40C1,11.106,11.105,1,40,1S79,11.106,79,40z"/>
  <path id="hicg_highlight" fill="#fff" opacity="0.25" d="M39.999,1C11.105,1,1,11.106,1,40c0,28.893,10.105,39,38.999,39   C68.896,79,79,68.893,79,40C79,11.106,68.896,1,39.999,1z M39.999,78.025C11.57,78.025,1.976,68.43,1.976,40   c0-28.429,9.595-38.024,38.023-38.024c28.43,0,38.024,9.596,38.024,38.024C78.023,68.43,68.429,78.025,39.999,78.025z"/>
  <path id="hicg_overlay" opacity="0.4" fill="url(#hicg_overlay_grad)" d="M78.977,40c0,28.893-10.1,39-38.977,39S1.023,68.893,1.023,40c0-28.894,10.1-39,38.977-39S78.977,11.106,78.977,40z"/>
 </g>
<g xmlns:sodipodi="http://sodipodi.sourceforge.net/DTD/sodipodi-0.dtd" xmlns:inkscape="http://www.inkscape.org/namespaces/inkscape" xmlns:rdf="http://www.w3.org/1999/02/22-rdf-syntax-ns#" xmlns:cc="http://creativecommons.org/ns#" xmlns:dc="http://purl.org/dc/elements/1.1/" transform="translate(13, 13) scale(0.108)">
  <defs xmlns="http://www.w3.org/2000/svg" id="defs1903"/>
  <sodipodi:namedview xmlns:sodipodi="http://sodipodi.sourceforge.net/DTD/sodipodi-0.dtd" xmlns:inkscape="http://www.inkscape.org/namespaces/inkscape" id="base" pagecolor="#ffffff" bordercolor="#666666" borderopacity="1.0" inkscape:pageopacity="0.0" inkscape:pageshadow="2" inkscape:zoom="0.5" inkscape:cx="-528" inkscape:cy="128.71265" inkscape:document-units="px" inkscape:current-layer="layer1" inkscape:window-width="1400" inkscape:window-height="1026" inkscape:window-x="0" inkscape:window-y="24" showgrid="false" showguides="false" inkscape:window-maximized="1" fit-margin-top="50" fit-margin-left="50" fit-margin-right="50" fit-margin-bottom="50" inkscape:showpageshadow="false"/>
  <metadata xmlns="http://www.w3.org/2000/svg" xmlns:rdf="http://www.w3.org/1999/02/22-rdf-syntax-ns#" xmlns:cc="http://creativecommons.org/ns#" xmlns:dc="http://purl.org/dc/elements/1.1/" id="metadata1906">
    <rdf:RDF>
      <cc:Work rdf:about="">
        <dc:format>image/svg+xml</dc:format>
        <dc:type rdf:resource="http://purl.org/dc/dcmitype/StillImage"/>
        <dc:title/>
      </cc:Work>
    </rdf:RDF>
  </metadata>
  <g xmlns="http://www.w3.org/2000/svg" xmlns:inkscape="http://www.inkscape.org/namespaces/inkscape" inkscape:label="Taso 1" inkscape:groupmode="layer" id="layer1" transform="translate(-149.5,-195.875)">
    <path style="fill:#08a7cc;fill-opacity:1;fill-rule:evenodd;stroke:#333333;stroke-width:5;stroke-miterlimit:0;stroke-opacity:1;stroke-dasharray:none" d="M 242.09375,225.375 C 220.98635,225.375 204,242.36135 204,263.46875 L 204,588.25 c 0,21.1074 16.98635,38.125 38.09375,38.125 l 25.9375,0 c -0.0124,0.33189 -0.0312,0.66496 -0.0312,1 l 0,24 c 0,14.404 11.596,26 26,26 14.404,0 26,-11.596 26,-26 l 0,-24 c 0,-0.33504 -0.0188,-0.66811 -0.0312,-1 l 174.0625,0 c -0.0124,0.33189 -0.0312,0.66496 -0.0312,1 l 0,24 c 0,14.404 11.596,26 26,26 14.404,0 26,-11.596 26,-26 l 0,-24 c 0,-0.33504 -0.0188,-0.66811 -0.0312,-1 l 22.9375,0 C 590.01365,626.375 607,609.3574 607,588.25 l 0,-324.78125 C 607,242.36135 590.01365,225.375 568.90625,225.375 l -326.8125,0 z m 13.71875,34 299.375,0 c 9.31333,0 16.8125,7.49917 16.8125,16.8125 l 0,206.375 c 0,9.31333 -7.49917,16.8125 -16.8125,16.8125 l -299.375,0 C 246.49917,499.375 239,491.87583 239,482.5625 l 0,-206.375 c 0,-9.31333 7.49917,-16.8125 16.8125,-16.8125 z M 294,538.875 c 14.08326,0 25.5,10.74517 25.5,24 0,13.25483 -11.41674,24 -25.5,24 -14.08326,0 -25.5,-10.74517 -25.5,-24 0,-13.25483 11.41674,-24 25.5,-24 z m 226,0 c 14.08326,0 25.5,10.74517 25.5,24 0,13.25483 -11.41674,24 -25.5,24 -14.08326,0 -25.5,-10.74517 -25.5,-24 0,-13.25483 11.41674,-24 25.5,-24 z" id="rect3016" inkscape:connector-curvature="0"/>
  </g>
</g></svg>
