<?xml version="1.0" encoding="UTF-8" standalone="no"?>
<!-- Created with Inkscape (http://www.inkscape.org/) -->

<svg
   xmlns:dc="http://purl.org/dc/elements/1.1/"
   xmlns:cc="http://creativecommons.org/ns#"
   xmlns:rdf="http://www.w3.org/1999/02/22-rdf-syntax-ns#"
   xmlns:svg="http://www.w3.org/2000/svg"
   xmlns="http://www.w3.org/2000/svg"
   xmlns:sodipodi="http://sodipodi.sourceforge.net/DTD/sodipodi-0.dtd"
   xmlns:inkscape="http://www.inkscape.org/namespaces/inkscape"
   width="500"
   height="500"
   id="svg1901"
   sodipodi:version="0.32"
   inkscape:version="0.48.1 r9760"
   sodipodi:docname="bussi.svg"
   version="1.1">
  <defs
     id="defs1903" />
  <sodipodi:namedview
     id="base"
     pagecolor="#ffffff"
     bordercolor="#666666"
     borderopacity="1.0"
     inkscape:pageopacity="0.0"
     inkscape:pageshadow="2"
     inkscape:zoom="0.5"
     inkscape:cx="-842.13517"
     inkscape:cy="128.71265"
     inkscape:document-units="px"
     inkscape:current-layer="layer1"
     inkscape:window-width="1920"
     inkscape:window-height="1176"
     inkscape:window-x="0"
     inkscape:window-y="24"
     showgrid="false"
     showguides="false"
     inkscape:window-maximized="1"
     fit-margin-top="50"
     fit-margin-left="50"
     fit-margin-right="50"
     fit-margin-bottom="50"
     inkscape:showpageshadow="false" />
  <metadata
     id="metadata1906">
    <rdf:RDF>
      <cc:Work
         rdf:about="">
        <dc:format>image/svg+xml</dc:format>
        <dc:type
           rdf:resource="http://purl.org/dc/dcmitype/StillImage" />
        <dc:title />
      </cc:Work>
    </rdf:RDF>
  </metadata>
  <g
     inkscape:label="Taso 1"
     inkscape:groupmode="layer"
     id="layer1"
     transform="translate(-149.5,-195.875)">
    <path
       style="fill:#08a7cc;fill-opacity:1;fill-rule:evenodd;stroke:#dddddd;stroke-width:5;stroke-miterlimit:0;stroke-opacity:1;stroke-dasharray:none"
       d="M 242.09375,225.375 C 220.98635,225.375 204,242.36135 204,263.46875 L 204,588.25 c 0,21.1074 16.98635,38.125 38.09375,38.125 l 25.9375,0 c -0.0124,0.33189 -0.0312,0.66496 -0.0312,1 l 0,24 c 0,14.404 11.596,26 26,26 14.404,0 26,-11.596 26,-26 l 0,-24 c 0,-0.33504 -0.0188,-0.66811 -0.0312,-1 l 174.0625,0 c -0.0124,0.33189 -0.0312,0.66496 -0.0312,1 l 0,24 c 0,14.404 11.596,26 26,26 14.404,0 26,-11.596 26,-26 l 0,-24 c 0,-0.33504 -0.0188,-0.66811 -0.0312,-1 l 22.9375,0 C 590.01365,626.375 607,609.3574 607,588.25 l 0,-324.78125 C 607,242.36135 590.01365,225.375 568.90625,225.375 l -326.8125,0 z m 13.71875,34 299.375,0 c 9.31333,0 16.8125,7.49917 16.8125,16.8125 l 0,206.375 c 0,9.31333 -7.49917,16.8125 -16.8125,16.8125 l -299.375,0 C 246.49917,499.375 239,491.87583 239,482.5625 l 0,-206.375 c 0,-9.31333 7.49917,-16.8125 16.8125,-16.8125 z M 294,538.875 c 14.08326,0 25.5,10.74517 25.5,24 0,13.25483 -11.41674,24 -25.5,24 -14.08326,0 -25.5,-10.74517 -25.5,-24 0,-13.25483 11.41674,-24 25.5,-24 z m 226,0 c 14.08326,0 25.5,10.74517 25.5,24 0,13.25483 -11.41674,24 -25.5,24 -14.08326,0 -25.5,-10.74517 -25.5,-24 0,-13.25483 11.41674,-24 25.5,-24 z"
       id="rect3016"
       inkscape:connector-curvature="0" />
  </g>
</svg>
