<?xml version="1.0" encoding="UTF-8" standalone="no"?>
<!-- Created with Inkscape (http://www.inkscape.org/) -->

<svg
   xmlns:dc="http://purl.org/dc/elements/1.1/"
   xmlns:cc="http://creativecommons.org/ns#"
   xmlns:rdf="http://www.w3.org/1999/02/22-rdf-syntax-ns#"
   xmlns:svg="http://www.w3.org/2000/svg"
   xmlns="http://www.w3.org/2000/svg"
   xmlns:sodipodi="http://sodipodi.sourceforge.net/DTD/sodipodi-0.dtd"
   xmlns:inkscape="http://www.inkscape.org/namespaces/inkscape"
   width="500"
   height="500"
   id="svg1901"
   sodipodi:version="0.32"
   inkscape:version="0.48.1 r9760"
   sodipodi:docname="bus.svg"
   version="1.1">
  <defs
     id="defs1903" />
  <sodipodi:namedview
     id="base"
     pagecolor="#ffffff"
     bordercolor="#666666"
     borderopacity="1.0"
     inkscape:pageopacity="0.0"
     inkscape:pageshadow="2"
     inkscape:zoom="0.5"
     inkscape:cx="-414"
     inkscape:cy="128.71265"
     inkscape:document-units="px"
     inkscape:current-layer="layer1"
     inkscape:window-width="1400"
     inkscape:window-height="1026"
     inkscape:window-x="0"
     inkscape:window-y="24"
     showgrid="false"
     showguides="false"
     inkscape:window-maximized="1"
     fit-margin-top="50"
     fit-margin-left="50"
     fit-margin-right="50"
     fit-margin-bottom="50"
     inkscape:showpageshadow="false" />
  <metadata
     id="metadata1906">
    <rdf:RDF>
      <cc:Work
         rdf:about="">
        <dc:format>image/svg+xml</dc:format>
        <dc:type
           rdf:resource="http://purl.org/dc/dcmitype/StillImage" />
        <dc:title />
      </cc:Work>
    </rdf:RDF>
  </metadata>
  <g
     inkscape:label="Taso 1"
     inkscape:groupmode="layer"
     id="layer1"
     transform="translate(-149.5,-195.875)">
    <path
       style="fill:#08a7cc;fill-opacity:1;fill-rule:evenodd;stroke:#333333;stroke-width:4.80592108;stroke-miterlimit:0;stroke-opacity:1;stroke-dasharray:none"
       d="m 240.88075,233.27796 c -20.48906,0 -36.97779,16.16687 -36.97779,36.25599 l 0,309.11276 c 0,20.08912 16.48873,36.28573 36.97779,36.28573 l 25.17766,0 c -0.012,0.31588 -0.0303,0.63288 -0.0303,0.95176 l 0,22.84216 c 0,13.70911 11.2563,24.74568 25.23833,24.74568 13.98203,0 25.23833,-11.03657 25.23833,-24.74568 l 0,-22.84216 c 0,-0.31888 -0.0182,-0.63588 -0.0303,-0.95176 l 168.96333,0 c -0.012,0.31588 -0.0303,0.63288 -0.0303,0.95176 l 0,22.84216 c 0,13.70911 11.25629,24.74568 25.23833,24.74568 13.98203,0 25.23833,-11.03657 25.23833,-24.74568 l 0,-22.84216 c 0,-0.31888 -0.0182,-0.63588 -0.0303,-0.95176 l 22.26554,0 c 20.48887,0 36.9776,-16.19661 36.9776,-36.28573 l 0,-309.11276 c 0,-20.08912 -16.48873,-36.25599 -36.97779,-36.25599 l -317.2385,0 z m 13.31686,32.35973 290.60478,0 c 9.0405,0 16.31998,7.13739 16.31998,16.00141 l 0,196.41882 c 0,8.86402 -7.27948,16.00141 -16.31998,16.00141 l -290.60478,0 c -9.0405,0 -16.31998,-7.13739 -16.31998,-16.00141 l 0,-196.41882 c 0,-8.86402 7.27948,-16.00141 16.31998,-16.00141 z m 37.06879,266.01603 c 13.67069,0 24.75298,10.22679 24.75298,22.84216 0,12.61538 -11.08229,22.84217 -24.75298,22.84217 -13.67069,0 -24.75297,-10.22679 -24.75297,-22.84217 0,-12.61537 11.08228,-22.84216 24.75297,-22.84216 z m 219.37931,0 c 13.67069,0 24.75298,10.22679 24.75298,22.84216 0,12.61538 -11.08229,22.84217 -24.75298,22.84217 -13.67069,0 -24.75297,-10.22679 -24.75297,-22.84217 0,-12.61537 11.08228,-22.84216 24.75297,-22.84216 z"
       id="rect3016"
       inkscape:connector-curvature="0" />
  </g>
</svg>
