<?xml version="1.0" encoding="UTF-8" standalone="no"?>
<!-- Created with Inkscape (http://www.inkscape.org/) -->

<svg
   xmlns:dc="http://purl.org/dc/elements/1.1/"
   xmlns:cc="http://creativecommons.org/ns#"
   xmlns:rdf="http://www.w3.org/1999/02/22-rdf-syntax-ns#"
   xmlns:svg="http://www.w3.org/2000/svg"
   xmlns="http://www.w3.org/2000/svg"
   xmlns:sodipodi="http://sodipodi.sourceforge.net/DTD/sodipodi-0.dtd"
   xmlns:inkscape="http://www.inkscape.org/namespaces/inkscape"
   width="500"
   height="500"
   id="svg1901"
   sodipodi:version="0.32"
   inkscape:version="0.48.3.1 r9886"
   sodipodi:docname="cycling.svg"
   version="1.1"
   inkscape:export-filename="/home/jukka/workspace/Harmattan/Meegopas/images/metro.png"
   inkscape:export-xdpi="18"
   inkscape:export-ydpi="18">
  <defs
     id="defs1903" />
  <sodipodi:namedview
     id="base"
     pagecolor="#ffffff"
     bordercolor="#666666"
     borderopacity="1.0"
     inkscape:pageopacity="0.0"
     inkscape:pageshadow="2"
     inkscape:zoom="1"
     inkscape:cx="-167.48238"
     inkscape:cy="183.48229"
     inkscape:document-units="px"
     inkscape:current-layer="layer1"
     inkscape:window-width="1855"
     inkscape:window-height="1176"
     inkscape:window-x="65"
     inkscape:window-y="24"
     showgrid="true"
     showguides="false"
     inkscape:window-maximized="1">
    <inkscape:grid
       type="xygrid"
       id="grid3363"
       empspacing="5"
       visible="true"
       enabled="true"
       snapvisiblegridlinesonly="true" />
  </sodipodi:namedview>
  <metadata
     id="metadata1906">
    <rdf:RDF>
      <cc:Work
         rdf:about="">
        <dc:format>image/svg+xml</dc:format>
        <dc:type
           rdf:resource="http://purl.org/dc/dcmitype/StillImage" />
        <dc:title />
      </cc:Work>
    </rdf:RDF>
  </metadata>
  <g
     inkscape:label="Taso 1"
     inkscape:groupmode="layer"
     id="layer1"
     transform="translate(0,-552.36218)">
    <path
       id="path3847"
       style="fill:none;stroke:#525252;stroke-width:16.69932747;stroke-linecap:round;stroke-linejoin:round;stroke-miterlimit:4;stroke-opacity:1;stroke-dasharray:none"
       d="m 179.02785,681.29205 16.69933,0 m -16.69933,41.74831 0,-41.74831 m 75.14698,203.7318 16.69933,0 m -16.69933,-36.73852 0,33.39865 m 33.39866,-187.03247 50.09798,0 m -25.04898,28.38885 0,-25.04898 m -58.44766,150.29395 -75.14698,-125.24497 133.59464,0 M 128.92991,848.28533 179.02785,723.04036 M 371.07013,848.28533 312.62249,723.04036 254.17483,848.28533 m 116.8953,0 -116.8953,0 m 192.04227,0 c 0,41.50252 -33.64445,75.14698 -75.14697,75.14698 -41.50252,0 -75.14697,-33.64446 -75.14697,-75.14698 0,-41.50253 33.64445,-75.14697 75.14697,-75.14697 41.50252,0 75.14697,33.64444 75.14697,75.14697 z m -242.14025,0 c 0,41.50252 -33.64446,75.14698 -75.14698,75.14698 -41.50251,0 -75.14697,-33.64446 -75.14697,-75.14698 0,-41.50253 33.64446,-75.14697 75.14697,-75.14697 41.50252,0 75.14698,33.64444 75.14698,75.14697 z"
       inkscape:connector-curvature="0" />
  </g>
</svg>
