<?xml version="1.0" encoding="UTF-8" standalone="no"?>
<!-- Created with Inkscape (http://www.inkscape.org/) -->

<svg
   xmlns:dc="http://purl.org/dc/elements/1.1/"
   xmlns:cc="http://creativecommons.org/ns#"
   xmlns:rdf="http://www.w3.org/1999/02/22-rdf-syntax-ns#"
   xmlns:svg="http://www.w3.org/2000/svg"
   xmlns="http://www.w3.org/2000/svg"
   xmlns:sodipodi="http://sodipodi.sourceforge.net/DTD/sodipodi-0.dtd"
   xmlns:inkscape="http://www.inkscape.org/namespaces/inkscape"
   width="500"
   height="500"
   id="svg1901"
   sodipodi:version="0.32"
   inkscape:version="0.48.2 r9819"
   sodipodi:docname="metro.svg"
   version="1.1"
   inkscape:export-filename="/home/jukka/workspace/Harmattan/Meegopas/images/metro.png"
   inkscape:export-xdpi="18"
   inkscape:export-ydpi="18">
  <defs
     id="defs1903" />
  <sodipodi:namedview
     id="base"
     pagecolor="#ffffff"
     bordercolor="#666666"
     borderopacity="1.0"
     inkscape:pageopacity="0.0"
     inkscape:pageshadow="2"
     inkscape:zoom="0.50000001"
     inkscape:cx="-1976.2758"
     inkscape:cy="456.41402"
     inkscape:document-units="px"
     inkscape:current-layer="layer1"
     inkscape:window-width="1920"
     inkscape:window-height="1138"
     inkscape:window-x="-8"
     inkscape:window-y="-8"
     showgrid="true"
     showguides="false"
     inkscape:window-maximized="1">
    <inkscape:grid
       type="xygrid"
       id="grid3363"
       empspacing="5"
       visible="true"
       enabled="true"
       snapvisiblegridlinesonly="true" />
  </sodipodi:namedview>
  <metadata
     id="metadata1906">
    <rdf:RDF>
      <cc:Work
         rdf:about="">
        <dc:format>image/svg+xml</dc:format>
        <dc:type
           rdf:resource="http://purl.org/dc/dcmitype/StillImage" />
        <dc:title />
      </cc:Work>
    </rdf:RDF>
  </metadata>
  <g
     inkscape:label="Taso 1"
     inkscape:groupmode="layer"
     id="layer1"
     transform="translate(0,-552.36218)">
    <path
       style="fill:#ee5400;fill-opacity:1;fill-rule:evenodd;stroke:#333333;stroke-width:15;stroke-miterlimit:0;stroke-opacity:1;stroke-dasharray:none"
       d="m 269.6833,581.73716 c -67.87651,0.12939 -137.13186,4.47072 -170.03731,9.15322 -19.904758,0 -35.927242,15.52777 -35.927242,34.83023 l 0,297.01678 c 0,19.30245 16.022484,34.8645 35.927242,34.8645 l 37.84701,0 c -0.0932,0.74906 -0.17141,1.51319 -0.17141,2.29688 l 0,27.04827 c 0,2.31591 0.41341,4.51041 1.16558,6.44496 l -56.804803,0 c -7.977317,0 -14.398321,4.8927 -14.398321,10.9702 0,6.0774 6.421004,10.9701 14.398321,10.9701 l 344.154143,0 c 7.97732,0 14.4326,-4.8927 14.4326,-10.9701 0,-6.0775 -6.45528,-10.9702 -14.4326,-10.9702 l -53.47948,0 c 0.75217,-1.93455 1.16558,-4.12905 1.16558,-6.44496 l 0,-27.04827 c 0,-0.78369 -0.0439,-1.54782 -0.13712,-2.29688 l 34.4874,0 c 19.90459,0 35.92724,-15.56205 35.92724,-34.8645 l 0,-297.01678 c 0,-19.30246 -16.02247,-34.83023 -35.92724,-34.83023 -33.41715,-6.80425 -85.39676,-9.25384 -138.18959,-9.15322 z m -157.07883,40.24674 282.30993,0 c 8.78269,0 16.21525,6.84128 16.21525,15.35821 l 0,148.91977 c 0,8.51692 -6.71265,15.39249 -15.49533,15.39249 l -282.30993,0 c -8.78269,0 -16.24953,-6.87557 -16.24953,-15.39249 l 0,-148.91977 c 0,-8.51693 6.74694,-15.35821 15.52961,-15.35821 z m 35.96152,230.20172 c 13.70916,0 24.81997,11.11081 24.81997,24.81996 0,13.70916 -11.11081,24.81996 -24.81997,24.81996 -13.70915,0 -24.81996,-11.1108 -24.81996,-24.81996 0,-13.70915 11.11081,-24.81996 24.81996,-24.81996 z m 212.54664,0 c 13.70915,0 24.81996,11.11081 24.81996,24.81996 0,13.70916 -11.11081,24.81996 -24.81996,24.81996 -13.70915,0 -24.81996,-11.1108 -24.81996,-24.81996 0,-13.70915 11.11081,-24.81996 24.81996,-24.81996 z m -201.43936,105.41627 191.53195,0 c -0.0933,0.74906 -0.17141,1.51319 -0.17141,2.29688 l 0,27.04827 c 0,2.31591 0.41341,4.51041 1.16558,6.44496 l -193.55457,0 c 0.75217,-1.93455 1.16558,-4.12905 1.16558,-6.44496 l 0,-27.04827 c 0,-0.78369 -0.0439,-1.54782 -0.13713,-2.29688 z"
       id="rect3016"
       inkscape:connector-curvature="0" />
  </g>
</svg>
