<?xml version="1.0" encoding="UTF-8" standalone="no"?>
<!-- Created with Inkscape (http://www.inkscape.org/) -->

<svg
   xmlns:dc="http://purl.org/dc/elements/1.1/"
   xmlns:cc="http://creativecommons.org/ns#"
   xmlns:rdf="http://www.w3.org/1999/02/22-rdf-syntax-ns#"
   xmlns:svg="http://www.w3.org/2000/svg"
   xmlns="http://www.w3.org/2000/svg"
   xmlns:sodipodi="http://sodipodi.sourceforge.net/DTD/sodipodi-0.dtd"
   xmlns:inkscape="http://www.inkscape.org/namespaces/inkscape"
   width="500"
   height="500"
   id="svg1901"
   sodipodi:version="0.32"
   inkscape:version="0.48.2 r9819"
   sodipodi:docname="train.svg"
   version="1.1"
   inkscape:export-filename="/home/jukka/workspace/Harmattan/Meegopas/images/train.png"
   inkscape:export-xdpi="18"
   inkscape:export-ydpi="18">
  <defs
     id="defs1903" />
  <sodipodi:namedview
     id="base"
     pagecolor="#ffffff"
     bordercolor="#666666"
     borderopacity="1.0"
     inkscape:pageopacity="0.0"
     inkscape:pageshadow="2"
     inkscape:zoom="1.4142136"
     inkscape:cx="-86.774882"
     inkscape:cy="253.97939"
     inkscape:document-units="px"
     inkscape:current-layer="layer1"
     inkscape:window-width="1262"
     inkscape:window-height="962"
     inkscape:window-x="145"
     inkscape:window-y="48"
     showgrid="true"
     showguides="false"
     inkscape:window-maximized="0">
    <inkscape:grid
       type="xygrid"
       id="grid3363"
       empspacing="5"
       visible="true"
       enabled="true"
       snapvisiblegridlinesonly="true" />
  </sodipodi:namedview>
  <metadata
     id="metadata1906">
    <rdf:RDF>
      <cc:Work
         rdf:about="">
        <dc:format>image/svg+xml</dc:format>
        <dc:type
           rdf:resource="http://purl.org/dc/dcmitype/StillImage" />
        <dc:title />
      </cc:Work>
    </rdf:RDF>
  </metadata>
  <g
     inkscape:label="Taso 1"
     inkscape:groupmode="layer"
     id="layer1"
     style="display:inline"
     transform="translate(0,-552.3622)">
    <path
       style="fill:#61b700;fill-opacity:1;fill-rule:evenodd;stroke:#333333;stroke-width:15;stroke-miterlimit:0;stroke-opacity:1;stroke-dasharray:none"
       d="m 266.14385,597.29837 c -65.0709,0.12404 -131.46366,4.28593 -163.009,8.77488 -19.082017,0 -34.442229,14.88594 -34.442229,33.39056 l 0,284.73992 c 0,18.50461 15.360212,33.42342 34.442229,33.42342 l 36.28265,0 c -0.0894,0.71809 -0.16433,1.45064 -0.16433,2.20194 l 0,25.93026 c 0,2.22018 0.39632,4.32398 1.1174,6.17857 l -54.456837,0 c -7.647583,0 -13.803182,4.6905 -13.803182,10.51668 0,5.8263 6.155599,10.5167 13.803182,10.5167 l 329.928907,0 c 7.64759,0 13.83605,-4.6904 13.83605,-10.5167 0,-5.82618 -6.18846,-10.51668 -13.83605,-10.51668 l -51.26896,0 c 0.72108,-1.85459 1.1174,-3.95839 1.1174,-6.17857 l 0,-25.93026 c 0,-0.7513 -0.0421,-1.48385 -0.13146,-2.20194 l 33.06191,0 c 19.08186,0 34.44223,-14.91881 34.44223,-33.42342 l 0,-284.73992 c 0,-18.50462 -15.3602,-33.39056 -34.44223,-33.39056 -32.03588,-6.52301 -81.86698,-8.87135 -132.47768,-8.77488 z m -150.58614,38.58318 270.64096,0 c 8.41967,0 15.54501,6.55851 15.54501,14.7234 l 0,142.76434 c 0,8.16488 -6.4352,14.75626 -14.85485,14.75626 l -270.64096,0 c -8.41967,0 -15.57788,-6.59138 -15.57788,-14.75626 l 0,-142.76434 c 0,-8.16489 6.46806,-14.7234 14.88772,-14.7234 z m 34.47509,220.68659 c 13.1425,0 23.79406,10.65156 23.79406,23.79406 0,13.1425 -10.65156,23.79405 -23.79406,23.79405 -13.1425,0 -23.79406,-10.65155 -23.79406,-23.79405 0,-13.1425 10.65156,-23.79406 23.79406,-23.79406 z m 203.76126,0 c 13.1425,0 23.79405,10.65156 23.79405,23.79406 0,13.1425 -10.65155,23.79405 -23.79405,23.79405 C 340.65155,904.15625 330,893.5047 330,880.3622 c 0,-13.1425 10.65155,-23.79406 23.79406,-23.79406 z m -193.11309,101.05901 183.61518,0 c -0.0894,0.71809 -0.16432,1.45064 -0.16432,2.20194 l 0,25.93026 c 0,2.22018 0.39632,4.32398 1.1174,6.17857 l -185.5542,0 c 0.72107,-1.85459 1.1174,-3.95839 1.1174,-6.17857 l 0,-25.93026 c 0,-0.7513 -0.0421,-1.48385 -0.13146,-2.20194 z"
       id="rect3016"
       inkscape:connector-curvature="0" />
  </g>
</svg>
