<?xml version="1.0" encoding="UTF-8" standalone="no"?>
<!-- Created with Inkscape (http://www.inkscape.org/) -->

<svg
   xmlns:dc="http://purl.org/dc/elements/1.1/"
   xmlns:cc="http://creativecommons.org/ns#"
   xmlns:rdf="http://www.w3.org/1999/02/22-rdf-syntax-ns#"
   xmlns:svg="http://www.w3.org/2000/svg"
   xmlns="http://www.w3.org/2000/svg"
   xmlns:sodipodi="http://sodipodi.sourceforge.net/DTD/sodipodi-0.dtd"
   xmlns:inkscape="http://www.inkscape.org/namespaces/inkscape"
   width="500"
   height="500"
   id="svg1901"
   sodipodi:version="0.32"
   inkscape:version="0.48.2 r9819"
   sodipodi:docname="walk.svg"
   version="1.1"
   inkscape:export-filename="/home/jukka/workspace/Harmattan/Meegopas/images/walk.png"
   inkscape:export-xdpi="18"
   inkscape:export-ydpi="18">
  <defs
     id="defs1903" />
  <sodipodi:namedview
     id="base"
     pagecolor="#ffffff"
     bordercolor="#666666"
     borderopacity="1.0"
     inkscape:pageopacity="0.0"
     inkscape:pageshadow="2"
     inkscape:zoom="0.19"
     inkscape:cx="-139.01195"
     inkscape:cy="175.26502"
     inkscape:document-units="px"
     inkscape:current-layer="layer1"
     inkscape:window-width="1920"
     inkscape:window-height="1176"
     inkscape:window-x="0"
     inkscape:window-y="24"
     showgrid="false"
     inkscape:window-maximized="1" />
  <metadata
     id="metadata1906">
    <rdf:RDF>
      <cc:Work
         rdf:about="">
        <dc:format>image/svg+xml</dc:format>
        <dc:type
           rdf:resource="http://purl.org/dc/dcmitype/StillImage" />
        <dc:title />
      </cc:Work>
    </rdf:RDF>
  </metadata>
  <g
     inkscape:label="Taso 1"
     inkscape:groupmode="layer"
     id="layer1"
     transform="translate(0,-552.36218)">
    <path
       style="fill:#ffffff;fill-opacity:1;stroke:#000000;stroke-width:15.1;stroke-miterlimit:4;stroke-opacity:1;stroke-dasharray:none"
       d="m 302.28125,597.4375 c -27.64318,6.01426 -55.38076,12.10361 -82.1875,21.125 0.0137,10.43187 1.46263,24.43653 -9.125,30.53125 -5.50488,2.83422 -15.07426,3.18004 -15.625,11 -1.63662,9.91599 9.93446,19.14062 19.3125,14.59375 -4.91621,25.00724 -1.8347,54.40828 18.28125,72.1875 -20.14762,18.42388 -42.21098,37.81934 -49.875,65.03125 -6.22892,14.4162 -20.42744,27.24927 -17.84375,44.125 4.32138,8.93923 18.70231,6.08337 22.34375,-2.1875 11.04067,-15.71096 15.16686,-35.75211 27.8125,-50.3125 3.02314,-3.73026 10.16283,-3.91086 10.875,1.75 0.15431,6.97327 -1.54725,13.93251 -1.50628,20.99155 -2.7639,34.80593 -4.28642,70.96218 -19.11872,103.0397 -12.88472,18.93486 -40.40642,21.79093 -50.71875,43.03125 -2.85953,9.87605 12.03982,18.05615 18.87328,10.24182 20.64084,-13.46245 43.83481,-25.88113 57.28297,-47.21057 1.22139,-5.67179 6.96819,-13.03618 13.34375,-9.46875 6.40843,6.41592 5.8138,16.28353 9.32196,24.1845 5.67784,20.8936 6.45095,44.67032 21.05304,61.90925 8.71405,4.4678 18.75892,-6.8647 16.28125,-15.59375 -3.12369,-12.99407 -7.27972,-25.78977 -10.12561,-38.89674 -7.91615,-31.42337 -21.2511,-61.41629 -29.84314,-92.63451 -2.24494,-10.76279 -4.40273,-22.5001 -1.0625,-33.15625 3.51909,-5.69034 12.63114,-3.75026 14.63125,2.26875 5.99217,7.89247 12.76518,19.87726 24.24375,19.16875 7.73705,-1.57439 11.77898,-11.94327 6.375,-17.96875 -8.49365,-14.02833 -23.98633,-23.46967 -28.375,-39.84375 -3.62192,-8.20839 -6.01254,-20.59764 2.5625,-26.53125 6.55948,-2.3697 13.03522,2.63865 19.75,0.6875 18.56644,-1.46448 33.61458,-15.95477 41.03125,-32.4375 14.08052,-25.77157 17.67613,-58.49594 4.59375,-85.34375 5.82799,-6.84949 16.92632,-12.73537 15.78125,-23.125 -5.72644,-10.59849 -21.07068,-3.38169 -28,-12.5 -4.33992,-4.57043 -4.01091,-12.02613 -9.96875,-15.21875 -3.00494,-2.16978 -6.63181,-3.65907 -10.375,-3.4375 z m 2.3125,54.53125 c 14.63973,8.81597 16.14773,28.32061 13.4703,43.65199 -1.6044,18.53596 -8.23987,40.53494 -27.0328,48.12926 -15.60054,4.84389 -32.08986,-4.12409 -42.5625,-15.375 -11.72101,-13.56008 -14.77953,-33.49654 -10.09375,-50.53125 4.58183,-11.9789 17.08362,-18.08334 29.03125,-20.0625 12.13959,-2.80232 24.75709,-6.14218 37.1875,-5.8125 z"
       id="path3859"
       inkscape:connector-curvature="0" />
  </g>
</svg>
