<?xml version="1.0" encoding="UTF-8" standalone="no"?>
<!-- Created with Inkscape (http://www.inkscape.org/) -->

<svg
   xmlns:dc="http://purl.org/dc/elements/1.1/"
   xmlns:cc="http://creativecommons.org/ns#"
   xmlns:rdf="http://www.w3.org/1999/02/22-rdf-syntax-ns#"
   xmlns:svg="http://www.w3.org/2000/svg"
   xmlns="http://www.w3.org/2000/svg"
   xmlns:sodipodi="http://sodipodi.sourceforge.net/DTD/sodipodi-0.dtd"
   xmlns:inkscape="http://www.inkscape.org/namespaces/inkscape"
   width="500"
   height="500"
   id="svg1901"
   sodipodi:version="0.32"
   inkscape:version="0.48.1 r9760"
   sodipodi:docname="walk.svg"
   version="1.1">
  <defs
     id="defs1903" />
  <sodipodi:namedview
     id="base"
     pagecolor="#ffffff"
     bordercolor="#666666"
     borderopacity="1.0"
     inkscape:pageopacity="0.0"
     inkscape:pageshadow="2"
     inkscape:zoom="1.2716412"
     inkscape:cx="1.6250912"
     inkscape:cy="184.30845"
     inkscape:document-units="px"
     inkscape:current-layer="layer1"
     inkscape:window-width="1385"
     inkscape:window-height="801"
     inkscape:window-x="388"
     inkscape:window-y="315"
     showgrid="false"
     inkscape:window-maximized="0" />
  <metadata
     id="metadata1906">
    <rdf:RDF>
      <cc:Work
         rdf:about="">
        <dc:format>image/svg+xml</dc:format>
        <dc:type
           rdf:resource="http://purl.org/dc/dcmitype/StillImage" />
        <dc:title />
      </cc:Work>
    </rdf:RDF>
  </metadata>
  <g
     inkscape:label="Taso 1"
     inkscape:groupmode="layer"
     id="layer1"
     transform="translate(0,-552.36218)">
    <g
       id="g3125"
       transform="matrix(1.1015633,0,0,1.1010955,-111.22251,141.74495)"
       style="fill:#e3e3e3;fill-opacity:1;stroke:#333333;stroke-width:1.81598722999999995;stroke-miterlimit:4;stroke-opacity:1;stroke-dasharray:none">
      <path
         style="fill:#e3e3e3;fill-opacity:1;stroke:#333333;stroke-width:1.81598722999999995;stroke-miterlimit:4;stroke-opacity:1;stroke-dasharray:none"
         d="m 349.32161,777.41888 c -3.1102,-9.91776 -12.59146,-37.12533 -21.06946,-60.46125 l -15.41455,-42.42895 -4.01304,19.09303 c -7.35164,34.97732 -9.27751,37.91158 -35.62697,54.2816 -34.77772,21.60622 -37.5549,22.86458 -40.75916,18.46818 -1.50755,-2.06837 10.72083,-11.76801 27.17417,-21.55467 16.45333,-9.78666 29.91515,-18.15004 29.91515,-18.58524 0,-0.43523 3.33511,-14.15574 7.41133,-30.48999 4.07624,-16.3343 8.69449,-46.88242 10.26278,-67.88475 1.56828,-21.00233 4.04551,-42.95931 5.50494,-48.79329 l 2.65352,-10.60724 -13.41194,10.60724 c -7.37657,5.83398 -21.20902,23.97235 -30.73879,40.3075 -18.00612,30.8646 -24.77809,39.12085 -29.08929,35.46508 -4.33955,-3.67977 29.90008,-57.46504 49.48255,-77.72953 17.97883,-18.60501 29.25444,-23.51799 35.21288,-15.34278 1.56928,2.1531 5.06953,13.82446 7.77833,25.93635 3.18263,14.23046 10.24377,27.15822 19.95836,36.54036 13.76144,13.29053 18.92968,22.70933 12.4609,22.70933 -7.33511,0 -33.1762,-29.77765 -38.66094,-44.55039 l -6.3011,-16.97158 -2.5307,36.06461 c -2.31066,32.92872 -1.08681,39.56945 14.07489,76.3721 9.13308,22.16913 18.66303,48.89937 21.17764,59.40053 2.51467,10.50117 6.013,23.38896 7.77408,28.63954 1.90162,5.66949 1.01453,9.54652 -2.18434,9.54652 -2.96249,0 -7.93104,-8.11454 -11.04124,-18.03231 z m 3.0229,-209.92579 c -18.95872,-4.09003 -48.26588,-22.84356 -53.44293,-34.19793 -2.88658,-6.33088 -4.31371,-21.42087 -3.1714,-33.5333 l 2.07692,-22.02261 -14.14691,2.39922 c -19.63765,3.3304 -17.85068,-5.01777 2.11485,-9.87996 14.35616,-3.49615 16.07948,-5.48821 14.70621,-16.9996 l -1.55555,-13.03938 42.65434,-9.07155 c 23.4599,-4.98935 44.80855,-9.07155 47.4415,-9.07155 2.63291,0 6.31887,5.91369 8.19098,13.14153 2.87358,11.09419 5.29268,12.83536 15.52783,11.17625 16.42123,-2.66186 20.57239,4.43685 4.58437,7.83951 -14.20983,3.02422 -15.63867,6.09422 -6.45917,13.87812 3.68386,3.12381 6.21409,16.11548 6.1562,31.60957 -0.12109,32.46786 -16.07943,59.66677 -38.97925,66.43597 -8.22455,2.43122 -15.18069,4.1989 -15.45799,3.9282 -0.2772,-0.2707 -4.88533,-1.43732 -10.24,-2.59249 z m 42.04607,-24.20163 c 15.08011,-20.69043 18.63733,-52.39595 7.86123,-70.06643 -8.06989,-13.23287 -9.70592,-13.87679 -29.43259,-11.58402 -11.48821,1.33524 -29.86238,4.91571 -40.83144,7.95659 -16.94537,4.69767 -20.6406,7.9199 -24.57892,21.43281 -10.49958,36.02546 16.00147,66.81866 57.50504,66.81866 16.09209,0 20.42673,-2.14075 29.47668,-14.55761 z"
         id="path3139"
         inkscape:connector-curvature="0" />
      <path
         style="fill:#e3e3e3;fill-opacity:1;stroke:#333333;stroke-width:1.81598722999999995;stroke-miterlimit:4;stroke-opacity:1;stroke-dasharray:none"
         d="m 349.44735,780.32484 c -2.68388,-5.98587 -4.87977,-14.0957 -4.87977,-18.02182 0,-3.92608 -7.21736,-25.28146 -16.03857,-47.45636 l -16.03857,-40.31798 -5.61508,25.73969 c -3.0883,14.1568 -7.00773,27.65044 -8.70986,29.98582 -6.06187,8.31709 -63.03692,39.80832 -65.6173,36.26792 -1.44499,-1.98258 10.59033,-11.50881 26.74517,-21.16946 28.77653,-17.20837 29.53908,-18.18602 37.58655,-48.18872 4.51776,-16.84319 9.28137,-43.14629 10.58581,-58.45131 1.30443,-15.30505 3.36403,-37.17594 4.57688,-48.60198 l 2.20519,-20.77465 -12.87022,10.16742 c -7.07863,5.59205 -21.67229,24.96447 -32.43035,43.04981 -10.75807,18.08534 -21.78663,32.88243 -24.50791,32.88243 -2.72127,0 -4.94777,-0.68323 -4.94777,-1.51832 0,-6.56078 39.4907,-63.41435 54.57086,-78.56403 23.93699,-24.04728 33.77718,-22.03441 38.45481,7.86625 2.38203,15.2266 8.2847,26.77071 20.16944,39.44619 23.18867,24.7315 20.87204,30.51605 -3.18625,7.95602 -11.15695,-10.46209 -21.32603,-25.15722 -23.48879,-33.94316 -3.28635,-13.35035 -4.2627,-10.50477 -7.05808,20.571 -3.01295,33.49443 -2.03555,39.17719 13.71484,79.74071 9.32744,24.02187 19.12169,51.85938 21.765,61.86111 2.6433,10.00174 6.24901,21.37363 8.01268,25.27094 1.83143,4.047 0.77807,7.08593 -2.45613,7.08593 -3.11455,0 -7.8587,-4.89753 -10.54258,-10.88345 z m -14.7817,-220.70101 c -30.92038,-12.14762 -42.47724,-30.52034 -38.92374,-61.87975 l 2.2708,-20.0397 -15.02774,2.5486 c -19.85708,3.36762 -13.87544,-5.58048 6.23411,-9.32577 13.26751,-2.471 14.34593,-3.97878 11.91839,-16.66363 l -2.66904,-13.9468 44.14977,-9.38959 c 41.89383,-8.9098 44.4778,-9.00918 50.56951,-1.94489 3.5308,4.09459 6.41969,10.16632 6.41969,13.49273 0,4.1786 3.90342,5.41528 12.62849,4.00096 6.94562,-1.12588 13.84977,-0.37138 15.34245,1.67665 1.49273,2.04805 -4.07295,4.87474 -12.3681,6.28155 -14.04962,2.38271 -14.61147,3.17809 -8.20719,11.61813 24.85323,32.75348 3.42518,93.31087 -35.8638,101.354 -6.13939,1.25683 -22.1734,-2.16439 -36.4736,-7.78249 z m 56.06077,-10.96877 c 18.59166,-18.21455 24.42858,-60.30652 10.80732,-77.93461 -9.55916,-12.37106 -22.02538,-13.14106 -60.23978,-3.72082 -29.55801,7.28635 -36.82248,15.45984 -36.68158,41.27164 0.11343,20.78423 10.35595,33.8233 34.77875,44.27452 24.36293,10.42564 37.75887,9.41032 51.33529,-3.89073 z"
         id="path3137"
         inkscape:connector-curvature="0" />
      <path
         style="fill:#e3e3e3;fill-opacity:1;stroke:#333333;stroke-width:1.81598722999999995;stroke-miterlimit:4;stroke-opacity:1;stroke-dasharray:none"
         d="m 350.3169,777.41888 c -2.76871,-7.58417 -6.60118,-20.47196 -8.51661,-28.63954 -1.91543,-8.16757 -9.29555,-28.20328 -16.40028,-44.52379 l -12.91767,-29.67366 -6.55072,27.44491 c -4.9403,20.69794 -9.9145,29.81419 -20.23363,37.08235 -22.63767,15.94459 -45.87117,27.44368 -51.96736,25.72056 -3.15826,-0.89267 6.02827,-8.02786 20.41449,-15.85596 14.38623,-7.8281 29.04039,-18.23409 32.56483,-23.1245 9.40667,-13.05241 22.22916,-75.50397 24.27172,-118.21473 l 1.77872,-37.19385 -13.91455,11.30417 c -7.653,6.21733 -22.15802,25.81853 -32.23339,43.55824 -10.07536,17.73971 -19.29767,30.02884 -20.49401,27.30914 -3.15237,-7.16638 30.2829,-60.12263 50.19664,-79.50362 21.73395,-21.15253 31.06925,-18.62067 35.65799,9.671 2.43928,15.03924 8.68642,26.98702 21.27441,40.68779 9.80157,10.66808 16.61345,20.42046 15.13753,21.67199 -4.98626,4.22817 -37.64454,-34.13927 -41.79744,-49.10425 -3.55058,-12.79454 -4.62327,-9.57482 -7.74941,23.26014 -3.46662,36.41112 -2.86083,39.98016 13.58732,80.05015 19.88041,48.4315 32.58469,91.86287 26.87115,91.86287 -2.17017,0 -6.21103,-6.20523 -8.97973,-13.78941 z M 332.05853,558.4407 c -29.02832,-15.20455 -35.0342,-24.54212 -34.92535,-54.29975 0.0963,-26.31907 -0.32288,-27.24692 -11.25814,-24.91962 -6.24698,1.32951 -11.35815,0.62333 -11.35815,-1.56931 0,-2.19263 6.73965,-5.24183 14.977,-6.77599 13.13796,-2.44687 14.82755,-4.42902 13.75995,-16.14253 -1.21653,-13.34759 -1.19934,-13.35714 41.31374,-22.95876 39.58484,-8.94028 42.96398,-9.11183 48.78529,-2.47668 3.43999,3.92092 6.25453,9.62797 6.25453,12.68234 0,3.37056 6.39187,5.68028 16.26177,5.87619 l 16.26176,0.3228 -15.9028,4.98083 c -14.06673,4.40577 -15.14962,5.84833 -9.37909,12.49463 17.53489,20.19622 10.56574,69.48317 -12.80807,90.58078 -13.83166,12.48472 -40.5425,13.43496 -61.98244,2.20508 z m 48.28873,-0.93395 c 24.35933,-11.05469 37.64679,-65.48408 21.18648,-86.7863 -9.55991,-12.37207 -23.85581,-13.29837 -60.97565,-3.9509 -29.53843,7.43833 -36.01948,14.89381 -36.01948,41.4351 0,21.80116 11.29214,36.45646 36.06878,46.81119 19.56273,8.17576 26.28469,8.59708 39.73987,2.49091 z"
         id="path3135"
         inkscape:connector-curvature="0" />
      <path
         style="fill:#e3e3e3;fill-opacity:1;stroke:#333333;stroke-width:1.81598722999999995;stroke-miterlimit:4;stroke-opacity:1;stroke-dasharray:none"
         d="m 349.47409,773.17599 c -8.43209,-27.63321 -25.63334,-76.19493 -31.18503,-88.04007 -4.57129,-9.75331 -5.53472,-8.5768 -11.96775,14.6144 -7.72456,27.84722 -14.32624,35.69738 -45.215,53.76579 -33.95472,19.8618 -36.41578,13.95722 -2.82205,-6.77073 24.28667,-14.98535 31.83881,-22.38967 35.70271,-35.00388 8.94451,-29.20062 15.13071,-66.46724 17.33094,-104.40428 l 2.17437,-37.49115 -14.14733,11.49332 c -7.78103,6.32132 -22.53919,26.0563 -32.79591,43.8555 -10.25672,17.79924 -19.50271,30.22918 -20.54665,27.62218 -6.35275,-15.86465 64.01611,-100.46369 77.63028,-93.32893 2.74259,1.43733 6.52667,12.10901 8.40908,23.71486 2.36848,14.60277 8.82806,27.10459 20.97427,40.59351 9.65345,10.72061 16.46438,20.41406 15.13537,21.54097 -4.08536,3.46428 -33.76068,-29.55762 -36.68008,-40.81656 -6.23812,-24.05781 -8.94211,-21.57988 -13.38989,12.27057 -4.48268,34.11602 -4.01345,37.24257 11.20917,74.69074 19.75493,48.59769 34.96773,99.72606 29.67265,99.72606 -2.19268,0 -6.46281,-8.11453 -9.48915,-18.0323 z M 332.05853,558.4407 c -29.02832,-15.20455 -35.0342,-24.54212 -34.92535,-54.29975 0.0963,-26.31907 -0.32288,-27.24692 -11.25814,-24.91962 -6.24698,1.32951 -11.35815,0.62333 -11.35815,-1.56931 0,-2.19263 6.87154,-5.26639 15.27008,-6.83057 13.52138,-2.51829 15.09714,-4.36363 13.75996,-16.11405 -1.4672,-12.89283 -0.65665,-13.46585 28.5116,-20.15644 61.41403,-14.0871 57.39592,-14.09528 63.24351,0.1289 4.30711,10.47697 8.20098,12.93405 21.05663,13.2871 l 15.77226,0.43315 -15.95965,4.35005 c -15.50852,4.2271 -15.73638,4.63894 -8.06168,14.57123 16.57114,21.44567 7.89767,67.13573 -17.38653,91.58842 -10.14714,9.81347 -39.48101,9.57893 -58.66454,-0.4691 z m 54.07347,-3.92909 c 22.18145,-20.78377 30.67389,-66.68339 15.69351,-84.81926 -9.30364,-11.2633 -25.14525,-12.01903 -61.26742,-2.9228 -29.53843,7.43833 -36.01948,14.89381 -36.01948,41.4351 0,21.88733 13.32847,39.07885 37.10278,47.85642 21.28562,7.85873 34.95796,7.38255 44.49061,-1.54946 z"
         id="path3133"
         inkscape:connector-curvature="0" />
      <path
         style="fill:#e3e3e3;fill-opacity:1;stroke:#333333;stroke-width:1.81598722999999995;stroke-miterlimit:4;stroke-opacity:1;stroke-dasharray:none"
         d="m 349.81673,773.17599 c -2.8291,-9.91777 -12.27122,-37.12533 -20.9825,-60.46125 l -15.83869,-42.42895 -6.55024,27.07603 c -7.1726,29.64867 -13.66822,37.62896 -46.03999,56.56326 -32.28675,18.88454 -30.19856,11.76377 2.95185,-10.06588 l 28.90416,-19.03354 8.46045,-37.87718 c 4.65324,-20.83244 9.39364,-55.67314 10.53423,-77.42379 l 2.07378,-39.54663 -14.45768,11.74548 c -7.95173,6.45998 -22.61737,25.74865 -32.59031,42.86372 -9.97294,17.11503 -19.27014,30.15371 -20.66044,28.97477 -6.16802,-5.2303 34.80245,-65.638 55.47895,-81.79928 l 22.16207,-17.32246 -13.11459,-11.12073 c -11.46967,-9.72588 -13.1146,-14.59207 -13.1146,-38.79684 0,-26.58251 -0.44486,-27.58145 -11.25814,-25.28011 -6.19198,1.31781 -11.25815,0.60205 -11.25815,-1.59059 0,-2.19263 6.90242,-5.27214 15.33871,-6.84336 13.64718,-2.54171 15.16461,-4.33351 13.75996,-16.24797 l -1.57876,-13.39123 42.53078,-9.01157 c 23.39192,-4.95636 44.04627,-8.27575 45.89851,-7.37641 1.85229,0.89934 4.75714,6.99925 6.45532,13.55536 2.70661,10.44961 5.06896,11.75149 19.1485,10.55267 l 16.06102,-1.36753 -16.32541,5.34911 c -15.94819,5.2255 -16.13432,5.58047 -8.05573,15.36076 17.00255,20.58395 8.47123,66.01852 -17.02672,90.67794 -8.68068,8.39521 -36.33983,9.90742 -51.9166,2.83842 -5.55876,-2.52266 -10.87075,-3.9389 -11.80441,-3.14717 -5.74671,4.87301 14.17807,53.63541 27.78086,67.98878 8.69404,9.17378 14.67647,17.63852 13.29427,18.81058 -4.70015,3.98561 -38.52048,-37.8095 -38.52048,-47.60358 0,-5.36065 -1.93728,-10.76194 -4.30507,-12.00286 -8.38249,-4.393 -14.33175,77.46059 -6.15644,84.70397 8.92958,7.91169 46.17531,120.71036 39.85813,120.71036 -2.19603,0 -6.30751,-8.11453 -9.1366,-18.0323 z M 385.71945,554.6669 c 25.17111,-24.34334 32.10323,-67.44008 13.98877,-86.9677 -9.8139,-10.57952 -10.19943,-10.62712 -41.27986,-5.09615 -52.44587,9.33309 -53.68597,10.45843 -53.82142,48.84109 -0.0551,15.62962 2.58298,21.50985 13.69163,30.51769 24.57373,19.92648 54.18425,25.50644 67.42088,12.70507 z"
         id="path3131"
         inkscape:connector-curvature="0" />
      <path
         style="fill:#e3e3e3;fill-opacity:1;stroke:#333333;stroke-width:1.81598722999999995;stroke-miterlimit:4;stroke-opacity:1;stroke-dasharray:none"
         d="m 349.75116,771.17623 c -5.92004,-19.34569 -27.94785,-81.08872 -33.72369,-94.5261 -1.50458,-3.50039 -6.06759,6.04612 -10.14001,21.21447 -4.07241,15.16835 -11.10806,31.14234 -15.63476,35.49776 -11.31992,10.89151 -50.89653,33.68808 -53.96623,31.08506 -1.37599,-1.16679 7.22585,-7.81117 19.11522,-14.76523 11.88935,-6.95411 25.21481,-16.20735 29.61213,-20.56272 10.93087,-10.82673 23.26731,-66.65953 26.52254,-120.03693 l 2.69746,-44.23163 -14.91322,14.53136 c -8.20228,7.9923 -23.17123,28.34984 -33.26435,45.23906 -10.09311,16.88923 -19.25238,29.94343 -20.35391,29.00935 -5.21309,-4.4205 35.65962,-65.89508 53.78897,-80.90123 23.47324,-19.4294 27.30374,-17.63177 32.64865,15.32195 2.31138,14.25065 8.33151,25.04088 20.93956,37.53112 9.73256,9.6416 16.63575,18.42884 15.34046,19.5272 -4.33904,3.67935 -38.86228,-37.62523 -38.93989,-46.58872 -0.042,-4.86762 -2.05984,-11.50589 -4.48379,-14.75174 -6.70619,-8.98009 -12.98965,74.34154 -6.47066,85.80393 14.69226,25.83351 44.57535,115.81949 39.80529,119.86433 -1.30639,1.10778 -5.16726,-7.10982 -8.57977,-18.26129 z M 325.80018,553.88447 c -23.86021,-14.65646 -33.90304,-35.52063 -29.17246,-60.60635 3.1249,-16.57099 2.87092,-16.95625 -9.44981,-14.33408 -6.96356,1.48203 -12.66102,0.90062 -12.66102,-1.29202 0,-2.19263 6.90242,-5.27214 15.33871,-6.84336 13.5331,-2.52046 15.15287,-4.38182 13.75996,-15.81219 -1.5352,-12.59803 -0.6815,-13.1682 30.94478,-20.66723 48.3106,-11.45513 58.55601,-10.68273 62.5443,4.7152 2.86657,11.06705 5.03724,12.43766 16.65935,10.51904 l 13.36332,-2.20606 -12.50905,5.16486 c -17.63261,7.28033 -17.417,6.91434 -8.91815,15.13926 17.38137,16.82117 11.35036,62.90457 -11.44899,87.48256 -14.67511,15.81997 -41.44792,15.32729 -68.45094,-1.25963 z m 63.66473,-2.27767 c 14.82498,-13.38128 24.83512,-46.14945 19.83771,-64.93858 -4.6864,-17.61971 -17.46529,-30.2013 -28.7431,-28.29929 -72.55554,12.23653 -76.02091,14.42798 -76.02091,48.07466 0,21.12027 1.83023,25.80143 13.75996,35.19364 29.62792,23.32595 52.77629,26.56875 71.16634,9.96957 z"
         id="path3129"
         inkscape:connector-curvature="0" />
      <path
         style="fill:#e3e3e3;fill-opacity:1;stroke:#333333;stroke-width:1.81598722999999995;stroke-miterlimit:4;stroke-opacity:1;stroke-dasharray:none"
         d="m 347.50688,761.86702 c -6.87214,-25.62085 -11.9342,-39.34212 -31.43828,-85.21689 -1.48823,-3.50039 -6.38812,6.91104 -10.88865,23.13651 -7.81441,28.17269 -9.48954,30.34302 -37.20843,48.20836 -15.96411,10.28911 -30.18692,17.72279 -31.60625,16.51925 -1.41933,-1.20354 7.14705,-7.878 19.03642,-14.83206 11.88935,-6.95411 25.32185,-16.20735 29.84999,-20.56272 11.57817,-11.13654 23.20919,-63.35954 26.24374,-117.83381 l 2.57761,-46.27144 -14.83283,14.44973 c -8.15805,7.94736 -23.09083,28.26816 -33.18395,45.15738 -23.83454,39.88326 -27.70352,36.7352 -4.69446,-3.81975 20.61759,-36.3398 55.72089,-68.87084 63.31924,-58.67936 5.93452,7.9598 6.34813,22.45671 0.55408,19.42019 -4.6896,-2.45769 -10.57597,30.96342 -10.64576,60.44344 -0.024,10.10454 6.68931,34.54722 14.91829,54.31707 15.90271,38.2057 31.67626,90.71539 28.14881,93.70654 -1.1655,0.9883 -5.73281,-11.67576 -10.14957,-28.14244 z m 0.30392,-134.62803 c -11.41124,-12.42002 -17.97306,-23.98068 -17.5044,-30.83944 l 0.7497,-10.97166 2.02874,11.17829 c 1.11581,6.14808 10.05257,19.12714 19.85947,28.84243 9.80691,9.71526 16.77095,18.56275 15.47566,19.66111 -1.29529,1.09836 -10.5694,-6.94345 -20.60917,-17.87073 z M 334.6433,558.4794 c -28.68247,-13.04389 -37.67666,-27.05562 -37.15791,-57.8869 0.44563,-26.48459 0.28156,-26.82128 -11.25814,-23.10094 -6.4407,2.07646 -11.71036,2.15199 -11.71036,0.16785 0,-1.98413 6.75489,-4.7531 15.01086,-6.15325 13.08564,-2.21924 15.01086,-4.36445 15.01086,-16.72616 0,-14.11312 0.17218,-14.21456 36.27625,-21.37493 47.32339,-9.38544 48.40638,-9.2738 54.52986,5.62148 4.39948,10.70161 7.31989,12.39043 18.50328,10.70004 l 13.27931,-2.00719 -13.75995,4.96915 c -15.69956,5.6696 -16.84374,8.60758 -6.25453,16.05973 4.13709,2.91146 7.16899,11.2373 6.75574,18.55182 l -0.74969,13.26989 -2.15281,-12.72869 c -2.62615,-15.52752 -19.02642,-31.38379 -30.46915,-29.45849 -42.45345,7.14301 -62.43954,12.23684 -68.63925,17.49398 -8.59722,7.29013 -10.0481,48.50589 -2.14814,61.02288 6.41358,10.16193 40.26031,25.1923 56.73022,25.1923 12.10056,0 38.17127,-20.99039 38.17127,-30.73296 0,-2.54348 1.4553,-3.39045 3.23404,-1.88216 1.77869,1.5083 -2.75649,10.41838 -10.07824,19.80017 -11.00637,14.10313 -16.13032,17.05784 -29.5811,17.05784 -8.94788,0 -24.04196,-3.53497 -33.54242,-7.85546 z m 75.9468,-45.18073 c 0.10207,-7.00077 1.22338,-9.35107 2.492,-5.22286 1.26862,4.12819 1.18521,9.8561 -0.18513,12.72868 -1.3709,2.87258 -2.40885,-0.50504 -2.30687,-7.50582 z"
         id="path3127"
         inkscape:connector-curvature="0" />
    </g>
  </g>
</svg>
